<?xml version="1.0" encoding="UTF-8"?>
<svg width="34px" height="41px" viewBox="0 0 34 41" version="1.1" xmlns="http://www.w3.org/2000/svg" xmlns:xlink="http://www.w3.org/1999/xlink">
    <!-- Generator: Sketch 54.1 (76490) - https://sketchapp.com -->
    <title>Build Icon</title>
    <desc>Created with Sketch.</desc>
    <g id="Page-1" stroke="none" stroke-width="1" fill="none" fill-rule="evenodd">
        <g id="Configuration-–-Build-Type" transform="translate(-659.000000, -508.000000)" fill="#657D95" fill-rule="nonzero">
            <g id="Build-w/-BundleTrackr-Card" transform="translate(502.000000, 487.000000)">
                <g id="Group-7" transform="translate(15.000000, 21.000000)">
                    <g id="Build-Icon" transform="translate(142.000000, 0.000000)">
                        <polygon id="Path" points="25.6122449 13 28 10.5 25.6122449 8 25 8.74324324 26.6530612 10.5 25 12.2567568"></polygon>
                        <polygon id="Path" points="20 12.2567568 18.32 10.5 20 8.74324324 19.34 8 17 10.5 19.34 13"></polygon>
                        <polygon id="Rectangle" transform="translate(22.216388, 10.589054) rotate(26.301135) translate(-22.216388, -10.589054) " points="21.7378354 6.23151753 22.6666305 6.2345508 22.694941 14.9465911 21.7661459 14.9435578"></polygon>
                        <rect id="Rectangle" x="3" y="11" width="4" height="1"></rect>
                        <rect id="Rectangle" x="9" y="11" width="1" height="1"></rect>
                        <rect id="Rectangle" x="7" y="11" width="1" height="1"></rect>
                        <rect id="Rectangle" x="3" y="14" width="2" height="1"></rect>
                        <rect id="Rectangle" x="5" y="14" width="2" height="1"></rect>
                        <rect id="Rectangle" x="8" y="14" width="7" height="1"></rect>
                        <rect id="Rectangle" x="21" y="26" width="2" height="1"></rect>
                        <rect id="Rectangle" x="13" y="26" width="7" height="1"></rect>
                        <rect id="Rectangle" x="3" y="26" width="9" height="1"></rect>
                        <rect id="Rectangle" x="7" y="32" width="4" height="1"></rect>
                        <rect id="Rectangle" x="12" y="32" width="7" height="1"></rect>
                        <rect id="Rectangle" x="19" y="32" width="8" height="1"></rect>
                        <rect id="Rectangle" x="23" y="20" width="1" height="1"></rect>
                        <rect id="Rectangle" x="12" y="20" width="9" height="1"></rect>
                        <rect id="Rectangle" x="7" y="20" width="4" height="1"></rect>
                        <rect id="Rectangle" x="24" y="20" width="3" height="1"></rect>
                        <rect id="Rectangle" x="7" y="17" width="5" height="1"></rect>
                        <rect id="Rectangle" x="20" y="17" width="7" height="1"></rect>
                        <rect id="Rectangle" x="15" y="17" width="1" height="1"></rect>
                        <rect id="Rectangle" x="19" y="17" width="1" height="1"></rect>
                        <rect id="Rectangle" x="13" y="17" width="1" height="1"></rect>
                        <rect id="Rectangle" x="17" y="17" width="1" height="1"></rect>
                        <rect id="Rectangle" x="22" y="29" width="3" height="1"></rect>
                        <rect id="Rectangle" x="25" y="29" width="2" height="1"></rect>
                        <rect id="Rectangle" x="7" y="29" width="8" height="1"></rect>
                        <rect id="Rectangle" x="18" y="29" width="1" height="1"></rect>
                        <rect id="Rectangle" x="20" y="29" width="1" height="1"></rect>
                        <rect id="Rectangle" x="16" y="29" width="1" height="1"></rect>
                        <rect id="Rectangle" x="7" y="23" width="7" height="1"></rect>
                        <rect id="Rectangle" x="15" y="23" width="4" height="1"></rect>
                        <rect id="Rectangle" x="4" y="23" width="1" height="1"></rect>
                        <rect id="Rectangle" x="3" y="23" width="1" height="1"></rect>
                        <path d="M33.9378428,0 L4.22669104,0 L4.22669104,3.50534351 L0,3.50534351 L0,34.8030534 L6.1535649,41 L30.5191956,41 L30.5191956,37.1816794 L34,37.1816794 L34,0 L33.9378428,0 Z M5.84277879,39.4351145 L1.55393053,35.1160305 L5.84277879,35.1160305 L5.84277879,39.4351145 Z M29.5868373,40.0610687 L6.77513711,40.0610687 L6.77513711,34.1145038 L0.932358318,34.1145038 L0.932358318,4.44427481 L29.5868373,4.44427481 L29.5868373,40.0610687 Z M33.0054845,36.3053435 L30.4570384,36.3053435 L30.4570384,3.50534351 L5.15904936,3.50534351 L5.15904936,0.938931298 L33.0676417,0.938931298 L33.0676417,36.3053435 L33.0054845,36.3053435 Z" id="Shape"></path>
                    </g>
                </g>
            </g>
        </g>
    </g>
</svg>