<?xml version="1.0" encoding="UTF-8"?>
<svg width="16px" height="7px" viewBox="0 0 16 7" version="1.1" xmlns="http://www.w3.org/2000/svg" xmlns:xlink="http://www.w3.org/1999/xlink">
    <!-- Generator: Sketch 54.1 (76490) - https://sketchapp.com -->
    <title>Shape</title>
    <desc>Created with Sketch.</desc>
    <g id="Page-1" stroke="none" stroke-width="1" fill="none" fill-rule="evenodd">
        <g id="Configuration-–-Build-Type" transform="translate(-706.000000, -253.000000)" fill="#657D95" fill-rule="nonzero">
            <g id="Right" transform="translate(572.000000, 106.000000)">
                <g id="Group" transform="translate(0.000000, 0.000000)">
                    <g id="Group-4" transform="translate(0.000000, 88.000000)">
                        <g id="Group-5" transform="translate(77.000000, 42.000000)">
                            <g id="Group-3" transform="translate(48.000000, 8.000000)">
                                <g id="Group-2" transform="translate(9.000000, 4.000000)">
                                    <g id="Shape-2" transform="translate(0.000000, 5.000000)">
                                        <path d="M7.88822599,0.00179830783 C6.40143054,0.0495530469 5.10774987,1.0345343 4.66425233,2.45646405 L1.03250327,2.45646405 C0.460669065,2.46196869 -1.13534063e-13,2.92774884 -1.13686838e-13,3.50042287 C-1.13839612e-13,4.07309689 0.460669065,4.53887705 1.03250327,4.54438168 L4.66425233,4.54438168 C5.12032473,6.005328 6.47150168,7 8,7 C9.52849846,7 10.8796754,6.005328 11.3357478,4.54438168 L14.9674967,4.54438168 C15.5393309,4.53887705 16,4.07309689 16,3.50042287 C16,2.92774884 15.5393309,2.46196869 14.9674967,2.45646405 L11.3357478,2.45646405 C10.8676323,0.955631147 9.45753397,-0.0483711835 7.88822599,0.00179830783 L7.88822599,0.00179830783 Z M7.96577577,2.08402469 C8.34611604,2.07481014 8.71397933,2.22018909 8.98553233,2.48703078 C9.25708534,2.75387246 9.40919213,3.11944233 9.40718871,3.50042976 C9.41586449,4.00961574 9.14956944,4.48388538 8.71061683,4.74101947 C8.27166422,4.99815355 7.72833537,4.99815355 7.28938276,4.74101947 C6.85043015,4.48388538 6.5841351,4.00961574 6.59281088,3.50042976 C6.58876827,2.7325881 7.19924327,2.10279787 7.96577577,2.08402469 Z" id="Shape"></path>
                                    </g>
                                </g>
                            </g>
                        </g>
                    </g>
                </g>
            </g>
        </g>
    </g>
</svg>