<?xml version="1.0" encoding="UTF-8"?>
<svg width="40px" height="41px" viewBox="0 0 40 41" version="1.1" xmlns="http://www.w3.org/2000/svg" xmlns:xlink="http://www.w3.org/1999/xlink">
    <!-- Generator: Sketch 54.1 (76490) - https://sketchapp.com -->
    <title>Docker Icon</title>
    <desc>Created with Sketch.</desc>
    <g id="Page-1" stroke="none" stroke-width="1" fill="none" fill-rule="evenodd">
        <g id="Configuration-–-Build-Type" transform="translate(-884.000000, -508.000000)" fill="#657D95" fill-rule="nonzero">
            <g id="Docker-Machine-Card" transform="translate(733.000000, 487.000000)">
                <g id="Group-8" transform="translate(15.000000, 21.000000)">
                    <g id="Docker-Icon" transform="translate(136.000000, 0.000000)">
                        <path d="M15,5 L10,5 L10,9.80582524 C11.5625,9.85436893 13.2589286,9.95145631 15,10 L15,5 Z" id="Path"></path>
                        <path d="M20,9.95412844 L20,5 L15,5 L15,9.7706422 C16.5625,9.86238532 18.1696429,9.90825688 19.8214286,10 L20,10 L20,9.95412844 Z" id="Path"></path>
                        <rect id="Rectangle" x="22" y="5" width="5" height="5"></rect>
                        <rect id="Rectangle" x="10" y="0" width="5" height="5"></rect>
                        <rect id="Rectangle" x="15" y="0" width="5" height="5"></rect>
                        <path d="M37.2106934,25.1979167 C36.1600209,24.4291667 34.9832676,24.0875 33.974622,24.34375 C33.5963799,23.6604167 32.9659764,22.8916667 32.1254384,22.3364583 C34.9412407,19.9875 36.8324513,17.040625 37.2947472,13.9229167 C37.8410969,10.4208333 36.2861016,6.87604167 35.7817788,5.85104167 C37.2106934,4.95416667 37.9671776,4.18541667 38.2193391,3.16041667 C38.5135274,1.921875 37.7570431,0.469791667 37.1266396,0 C37.0846127,0.726041667 36.7904244,1.19583333 36.117994,1.70833333 C35.5716443,2.13541667 34.2267834,2.51979167 34.1007027,3.84375 C33.1761109,3.5875 32.293546,4.31354167 31.7051693,4.56979167 C31.0747658,4.82604167 30.1081471,4.95416667 29.6038243,4.91145833 C29.9400395,5.93645833 30.3182816,6.70520833 31.410981,7.08958333 C32.3355729,7.43125 33.5123261,6.87604167 34.81516,6.36354167 C35.0673215,6.74791667 35.4035367,8.75520833 35.0673215,9.865625 C34.5209717,11.5739583 30.4443623,11.7447917 22.8374931,11.4885417 C11.4482029,11.146875 0.64728922,9.95104167 0.35310091,12.5989583 C0.184993305,13.9229167 0.100939502,16.65625 1.86606936,19.9875 C4.13552203,24.2583333 9.3048309,27.4614583 15.8610275,27.5895833 C17.8783188,27.6322917 19.8535832,27.4614583 21.7027668,27.0770833 C23.0896546,27.803125 24.3504616,28.4010417 25.6953224,28.7427083 C27.9227482,29.340625 29.8980126,29.1697917 30.7385506,28.7854167 C31.5790886,28.4010417 30.7385506,28.1020833 29.9400395,27.9739583 C29.1835553,27.8458333 27.2923447,26.4364583 25.3170803,26.0947917 C27.586533,25.2833333 29.6458512,24.1729167 31.3689541,22.8489583 C32.3355729,23.446875 33.0500302,24.2583333 33.3021916,24.984375 L33.4702992,25.4541667 L33.9325951,25.2833333 C34.7311062,24.984375 35.7817788,25.1979167 36.7063706,25.88125 C37.7570431,26.65 38.3454198,27.803125 38.261366,28.9135417 C38.1773122,30.0666667 37.7150162,31.0489583 36.9165051,31.6895833 C35.9078595,32.4583333 34.4369179,32.7572917 32.7558419,32.415625 L32.2094922,32.3302083 L32.1674653,32.8854167 C32.1674653,33.2270833 31.8732769,33.56875 31.4530079,33.825 C30.8226044,34.209375 30.0661202,34.2947917 29.5617974,34.0385417 L29.2255822,33.8677083 L28.9734208,34.2520833 C28.1328827,35.4052083 26.6619412,36.0458333 24.9388382,36.003125 C23.9722195,35.9604167 23.0476277,35.7041667 22.2911434,35.2770833 C22.2070896,34.3375 21.7447937,33.4833333 20.9883095,32.928125 C20.3158791,32.415625 19.5173679,32.159375 18.634803,32.2447917 C18.1725071,31.1770833 17.1638615,30.4510417 15.9871082,30.4510417 C15.7349468,30.4510417 15.5248123,30.4510417 15.3146778,30.5364583 C14.6422474,29.596875 13.5915748,28.95625 12.4148216,28.7854167 C10.9018532,28.571875 9.51496541,29.1270833 8.59037358,30.1947917 C8.00199696,29.8958333 7.45564724,29.4260417 7.11943203,28.828125 C6.86727062,28.3583333 6.53105541,27.41875 7.11943203,26.3510417 L6.278894,25.8385417 C5.64849048,26.90625 5.64849048,28.1447917 6.278894,29.2552083 C6.69916302,29.98125 7.28753964,30.5791667 8.04402386,30.9635417 C7.83388936,31.3479167 7.70780865,31.775 7.62375485,32.2447917 C7.62375485,32.3302083 7.62375485,32.3729167 7.58172795,32.4583333 C6.2368671,32.8 5.31227527,33.953125 5.18619457,35.3625 C5.06011386,37.15625 6.278894,38.3947917 7.45564724,38.9072917 C8.04402386,39.1635417 8.80050809,39.20625 9.38888471,39.078125 C10.1453689,40.103125 11.406176,40.7864583 12.9191444,40.9572917 C13.1713058,41 13.4234672,41 13.7176555,41 C14.5161667,41 15.3567047,40.8291667 16.1131889,40.5729167 C16.9957539,40.23125 17.794265,39.7614583 18.3406147,39.1635417 C19.6434486,39.078125 20.778175,38.565625 21.5346592,37.7114583 C21.9129013,37.284375 22.1650627,36.8145833 22.2911434,36.3447917 C23.0896546,36.7291667 24.0142464,36.9427083 24.9808651,36.9854167 C25.0649189,36.9854167 25.1489727,36.9854167 25.2330265,36.9854167 C26.9981564,36.9854167 28.5531517,36.3020833 29.6038243,35.1489583 C30.3603085,35.3625 31.2849003,35.234375 32.0413846,34.7645833 C32.5457074,34.465625 32.9239495,34.0385417 33.0920571,33.56875 C34.8571869,33.7822917 36.4121823,33.440625 37.5469086,32.5864583 C38.5555543,31.775 39.1439309,30.5791667 39.2700116,29.1270833 C39.2700116,27.6322917 38.5135274,26.1375 37.2106934,25.1979167 Z M12.9689312,20.0444444 C13.4808664,20.0444444 13.8746628,20.4405797 13.8746628,20.9555556 C13.8746628,21.4705314 13.4808664,21.8666667 12.9689312,21.8666667 C12.4569961,21.8666667 12.0631997,21.4705314 12.0631997,20.9555556 C12.0238201,20.4801932 12.4569961,20.0444444 12.9689312,20.0444444 Z M9.77013024,26.3347263 C8.0626077,25.5759992 5.81367557,24.395757 3.89791857,22.2038787 C4.48097504,22.2881817 5.10567841,22.3724847 5.73038178,22.3724847 C7.47955122,24.1849995 10.0616585,25.9132113 12.935294,26.4611808 C10.644715,25.5759992 8.77060485,24.6065146 6.97978852,22.3724847 C7.39625744,22.3724847 7.77107946,22.3303332 8.18754837,22.2881817 C10.3115398,24.3536055 13.3934098,26.1661203 15.5590481,26.6297869 C13.5599974,25.7024537 10.9778901,24.058545 9.31201444,22.1617272 C9.81177713,22.0774242 10.2698929,21.9931212 10.7696556,21.8666667 C12.2689437,23.889939 16.0171639,26.8405444 20.2235,27.0513019 C15.2675199,27.7678775 11.2277714,26.9669989 9.77013024,26.3347263 Z M20.5896743,37.1723833 C20.0128704,37.8150042 19.1064642,38.2434181 18.0352569,38.2434181 L17.7880553,38.2434181 L17.6232541,38.4576251 C16.8404488,39.4429772 14.9864362,40.2998051 13.1736239,40.0427567 C11.8552149,39.8713912 10.8252079,39.2287702 10.3308045,38.3291009 L10.0836029,37.900687 L9.63039979,38.0720526 C9.3831981,38.1577354 8.60039278,38.2434181 8.18838998,38.0292112 C7.77638718,37.8578456 6.54037877,37.1295419 6.62277933,35.630093 C6.70517989,34.5590582 7.44678493,33.7879131 8.43559166,33.7022303 L8.9711953,33.6593889 L8.9711953,33.1024507 C8.9711953,32.9310852 8.9711953,32.7597196 9.01239558,32.588354 C9.21839698,30.960381 10.7428074,29.8465047 12.3908186,30.1035531 C13.338425,30.2320773 14.2036309,30.8318568 14.656834,31.6886847 L14.9040357,32.15994 L15.3572387,31.9457331 C15.5632401,31.8600503 15.8104418,31.8172089 16.0576435,31.8172089 C16.8816491,31.8172089 17.5820539,32.4169884 17.746855,33.2309749 L17.8704558,33.7879131 L18.4060595,33.6593889 C19.1064642,33.5308647 19.7656687,33.6593889 20.3012724,34.0878028 C20.7956757,34.4733754 21.0840777,35.0303135 21.125278,35.630093 C21.1664782,36.1870312 20.9604768,36.7439693 20.5896743,37.1723833 Z" id="Shape"></path>
                    </g>
                </g>
            </g>
        </g>
    </g>
</svg>