<?xml version="1.0" encoding="UTF-8"?>
<svg width="57px" height="39px" viewBox="0 0 57 39" version="1.1" xmlns="http://www.w3.org/2000/svg" xmlns:xlink="http://www.w3.org/1999/xlink">
    <!-- Generator: Sketch 54.1 (76490) - https://sketchapp.com -->
    <title>Logo</title>
    <desc>Created with Sketch.</desc>
    <g id="Page-1" stroke="none" stroke-width="1" fill="none" fill-rule="evenodd">
        <g id="Configuration-–-Form" transform="translate(-692.000000, -104.000000)">
            <g id="Right" transform="translate(557.000000, 104.000000)">
                <g id="Group">
                    <g id="Logo" transform="translate(135.000000, 0.000000)">
                        <g>
                            <path d="M0,34.125 L0,-2.84217094e-14 L12.2578125,-2.84217094e-14 C16.6484595,-2.84217094e-14 19.9882698,0.804679453 22.2773438,2.4140625 C24.5664177,4.02344555 25.7109375,6.35935969 25.7109375,9.421875 C25.7109375,11.1875088 25.3046916,12.6953062 24.4921875,13.9453125 C23.6796834,15.1953187 22.4843829,16.1171845 20.90625,16.7109375 C22.6875089,17.1796898 24.0546827,18.0546811 25.0078125,19.3359375 C25.9609423,20.6171939 26.4375,22.1796783 26.4375,24.0234375 C26.4375,27.3672042 25.3789168,29.8788979 23.2617188,31.5585937 C21.1445207,33.2382896 18.0078333,34.0937498 13.8515625,34.125 L0,34.125 Z M8.2265625,19.6171875 L8.2265625,27.796875 L13.6171875,27.796875 C15.1015699,27.796875 16.2421835,27.4570346 17.0390625,26.7773437 C17.8359415,26.0976529 18.234375,25.1406312 18.234375,23.90625 C18.234375,21.0624858 16.8203266,19.6328126 13.9921875,19.6171875 L8.2265625,19.6171875 Z M8.2265625,14.2265625 L12.515625,14.2265625 C14.312509,14.2109374 15.5937462,13.8828157 16.359375,13.2421875 C17.1250038,12.6015593 17.5078125,11.6562562 17.5078125,10.40625 C17.5078125,8.96874281 17.0937541,7.93359691 16.265625,7.30078125 C15.4374959,6.66796559 14.1015717,6.3515625 12.2578125,6.3515625 L8.2265625,6.3515625 L8.2265625,14.2265625 Z M39.796875,2.4609375 L39.796875,8.765625 L43.96875,8.765625 L43.96875,14.25 L39.796875,14.25 L39.796875,25.8515625 C39.796875,26.8046923 39.9687483,27.4687481 40.3125,27.84375 C40.6562517,28.2187519 41.3359324,28.40625 42.3515625,28.40625 C42.8723984,28.40625 43.5286484,28.40625 44.3203125,28.40625 L44.3203125,34.59375 C42.3828177,34.59375 40.8984427,34.59375 39.8671875,34.59375 C37.1484239,34.59375 35.1406315,33.9531314 33.84375,32.671875 C32.5468685,31.3906186 31.8984375,29.4453255 31.8984375,26.8359375 L31.8984375,14.25 L28.6640625,14.25 L28.6640625,8.765625 L31.8984375,8.765625 L31.8984375,2.4609375 L39.796875,2.4609375 Z" id="Bt" fill="#FFFFFF" fill-rule="nonzero"></path>
                            <polygon id="Triangle" fill="#657D95" transform="translate(50.140625, 31.625000) rotate(90.000000) translate(-50.140625, -31.625000) " points="50.140625 25.125 56.640625 38.125 43.640625 38.125"></polygon>
                        </g>
                    </g>
                </g>
            </g>
        </g>
    </g>
</svg>